<svg xmlns="http://www.w3.org/2000/svg" width="40" height="40" viewBox="0 0 40 40">
  <g id="Congratulation_Icon" data-name="Congratulation Icon" transform="translate(-690 -135)">
    <circle id="Elipse_105" data-name="Elipse 105" cx="20" cy="20" r="20" transform="translate(690 135)" fill="#04c940"/>
    <path id="Trazado_496" data-name="Trazado 496" d="M19.8,8.012c-1.842-4.286-4.8-7.547-6.3-6.938-2.545,1.036,1.516,6-10.985,11.085-1.08.441-1.353,2.2-.9,3.247S3.537,17.5,4.617,17.061c.187-.077.873-.3.873-.3.771,1.036,1.578.422,1.865,1.079L8.7,20.935c.255.584.831,1.124,1.25.965l2.384-.906a.787.787,0,0,0,.507-1.074c-.179-.413-.914-.534-1.124-1.015s-.894-2.021-1.091-2.507c-.267-.66.3-1.2,1.128-1.284,5.691-.6,6.755,2.921,8.692,2.133,1.5-.61,1.192-4.952-.649-9.235Zm-.641,6.949c-.334.134-2.573-1.63-4-4.962S13.9,3.627,14.236,3.491s2.517,2,3.948,5.326S19.491,14.824,19.158,14.96Z" transform="translate(698.6 143)" fill="#fff"/>
  </g>
</svg>
