<svg xmlns="http://www.w3.org/2000/svg" width="40" height="40" viewBox="0 0 40 40"><defs><style>.a,.b{fill:#ffbf36;}.c,.f{fill:#282e36;}.c{font-size:15px;font-family:Montserrat-SemiBold, Montserrat;font-weight:600;}.d,.e,.f{stroke:none;}.e{fill:#fff;}</style></defs><g transform="translate(-690 -135)"><circle class="a" cx="20" cy="20" r="20" transform="translate(690 135)"/><g class="b" transform="translate(697 141)"><path class="d" d="M 22.55010986328125 23.70320320129395 L 3.449889898300171 23.70320320129395 C 2.367559909820557 23.70320320129395 1.397320032119751 23.1441822052002 0.8544800281524658 22.20783233642578 C 0.3116500079631805 21.2714729309082 0.3086600005626678 20.15171241760254 0.8464800119400024 19.21247291564941 L 10.39659023284912 2.534152507781982 C 10.93774032592773 1.589092493057251 11.91098022460938 1.024882435798645 13 1.024882435798645 C 14.08901977539063 1.024882435798645 15.06225967407227 1.589092493057251 15.60340976715088 2.534152507781982 L 25.15352058410645 19.21247291564941 C 25.69133949279785 20.15171241760254 25.68835067749023 21.2714729309082 25.1455192565918 22.20783233642578 C 24.60268020629883 23.1441822052002 23.6324405670166 23.70320320129395 22.55010986328125 23.70320320129395 Z"/><path class="e" d="M 13 2.024877548217773 C 12.32424545288086 2.024877548217773 11.6484899520874 2.360273361206055 11.26438999176025 3.031063079833984 L 1.714279174804688 19.70938301086426 C 0.9508094787597656 21.04270172119141 1.913450241088867 22.70320320129395 3.44989013671875 22.70320320129395 L 22.55010986328125 22.70320320129395 C 24.08654975891113 22.70320320129395 25.04919052124023 21.04270172119141 24.28572082519531 19.70938301086426 L 14.73561000823975 3.031063079833984 C 14.3515100479126 2.360273361206055 13.67575454711914 2.024877548217773 13 2.024877548217773 M 13 0.024871826171875 C 14.45203018188477 0.024871826171875 15.74967956542969 0.7771625518798828 16.47121047973633 2.037242889404297 L 26.02132987976074 18.71556282043457 C 26.73841094970703 19.96788215637207 26.73442077636719 21.46090316772461 26.01065063476563 22.70937347412109 C 25.28686904907227 23.95784187316895 23.99320983886719 24.70320320129395 22.55010986328125 24.70320320129395 L 3.44989013671875 24.70320320129395 C 2.006790161132813 24.70320320129395 0.7131309509277344 23.95784187316895 -0.010650634765625 22.70937347412109 C -0.7344207763671875 21.46090316772461 -0.7384109497070313 19.96788215637207 -0.02132034301757813 18.71556282043457 L 9.528779983520508 2.037242889404297 C 10.25032043457031 0.7771625518798828 11.54796981811523 0.024871826171875 13 0.024871826171875 Z"/></g><g class="b" transform="translate(697 141)"><path class="d" d="M 22.55010986328125 21.70320320129395 L 3.449889898300171 21.70320320129395 C 2.92986011505127 21.70320320129395 2.671639919281006 21.35461235046387 2.584749937057495 21.20474243164063 C 2.497869968414307 21.05487251281738 2.32367992401123 20.65756225585938 2.582079887390137 20.2062931060791 L 12.13218975067139 3.527972459793091 C 12.3922004699707 3.073902368545532 12.82569026947021 3.024882555007935 13 3.024882555007935 C 13.17430973052979 3.024882555007935 13.6077995300293 3.073902368545532 13.86781024932861 3.527972459793091 L 23.41791915893555 20.2062931060791 C 23.67631912231445 20.65756225585938 23.50213050842285 21.05487251281738 23.41525077819824 21.20474243164063 C 23.32835960388184 21.35461235046387 23.07014083862305 21.70320320129395 22.55010986328125 21.70320320129395 Z"/><path class="f" d="M 13.00000476837158 4.024873733520508 C 13.00000286102295 4.024877548217773 13.00000190734863 4.024879455566406 13 4.024883270263672 L 3.449880599975586 20.70320320129395 C 3.449884414672852 20.70320320129395 3.449886322021484 20.70320320129395 3.44989013671875 20.70320320129395 L 22.55010986328125 20.70320320129395 L 13.00000953674316 4.024883270263672 C 13.00000858306885 4.024879455566406 13.00000667572021 4.024877548217773 13.00000476837158 4.024873733520508 M 13 2.024877548217773 C 13.67575454711914 2.024877548217773 14.3515100479126 2.360273361206055 14.73561000823975 3.031063079833984 L 24.28572082519531 19.70938301086426 C 25.04919052124023 21.04270172119141 24.08654975891113 22.70320320129395 22.55010986328125 22.70320320129395 L 3.44989013671875 22.70320320129395 C 1.913450241088867 22.70320320129395 0.9508094787597656 21.04270172119141 1.714279174804688 19.70938301086426 L 11.26438999176025 3.031063079833984 C 11.6484899520874 2.360273361206055 12.32424545288086 2.024877548217773 13 2.024877548217773 Z"/></g><text class="c" transform="translate(710 160)"><tspan x="-2.085" y="0">!</tspan></text></g></svg>